<?xml version="1.0" encoding="UTF-8"?>
<svg width="80px" height="80px" viewBox="0 0 80 80" version="1.1" xmlns="http://www.w3.org/2000/svg" xmlns:xlink="http://www.w3.org/1999/xlink">
    <!-- Generator: Sketch 46.2 (44496) - http://www.bohemiancoding.com/sketch -->
    <title>Icon/step 02 Copy 2</title>
    <desc>Created with Sketch.</desc>
    <defs></defs>
    <g id="Symbol" stroke="none" stroke-width="1" fill="none" fill-rule="evenodd">
        <g id="Icon/step-02-Copy-2">
            <path d="M53.462,29.6772 C55.5189714,29.6772 57.188,28.0086592 57.188,25.9522 C57.188,23.8951189 55.5193496,22.2272 53.462,22.2272 C51.4049066,22.2272 49.737,23.8948628 49.737,25.9522 C49.737,28.0089153 51.4052847,29.6772 53.462,29.6772 Z M53.462,31.6772 C50.3007153,31.6772 47.737,29.1134847 47.737,25.9522 C47.737,22.7902279 50.3004026,20.2272 53.462,20.2272 C56.6237228,20.2272 59.188,22.790353 59.188,25.9522 C59.188,29.1133596 56.62341,31.6772 53.462,31.6772 Z" id="Page-1" fill="#85807B" fill-rule="nonzero"></path>
            <path d="M67.999,8.4142 C69.6562847,8.4142 71,9.75791525 71,11.4152 L71,40.9354227 L38.1059889,73.8284025 L5.58578644,41.3082 L38.4797864,8.4142 L67.999,8.4142 Z M69,11.4152 C69,10.8624847 68.5517153,10.4142 67.999,10.4142 L39.3082136,10.4142 L8.41421356,41.3082 L38.1060111,70.9999975 L69,40.1069773 L69,11.4152 Z" id="Combined-Shape" fill="#BAB4B1"></path>
        </g>
    </g>
</svg>