<?xml version="1.0" encoding="UTF-8"?>
<svg width="80px" height="80px" viewBox="0 0 80 80" version="1.1" xmlns="http://www.w3.org/2000/svg" xmlns:xlink="http://www.w3.org/1999/xlink">
    <!-- Generator: Sketch 46.2 (44496) - http://www.bohemiancoding.com/sketch -->
    <title>Icon/step 04 Copy 2</title>
    <desc>Created with Sketch.</desc>
    <defs></defs>
    <g id="Symbol" stroke="none" stroke-width="1" fill="none" fill-rule="evenodd">
        <g id="Icon/step-04-Copy-2" fill-rule="nonzero">
            <g id="Page-1" transform="translate(5.000000, 11.000000)">
                <path d="M31.3085147,29.083909 L32.8934853,30.303691 L23.0834853,43.050691 L21.4985147,41.830909 L31.3085147,29.083909 Z M36.1064147,30.303691 L37.6913853,29.083909 L47.5013853,41.830909 L45.9164147,43.050691 L36.1064147,30.303691 Z M33.5004,1.6665 L35.5004,1.6665 L35.5004,56.4995 L33.5004,56.4995 L33.5004,1.6665 Z M1.3432,30 L1.3432,28 L20.4272,28 L20.4272,30 L1.3432,30 Z M48.9164,30 L48.9164,28 L68.0004,28 L68.0004,30 L48.9164,30 Z" id="Combined-Shape" fill="#85807B"></path>
                <path d="M33.5004,24.0283 C33.5004,20.2199497 30.4124802,17.1323 26.6044,17.1323 C22.7948198,17.1323 19.7074,20.2194497 19.7074,24.0283 C19.7074,27.8371503 22.7948198,30.9243 26.6044,30.9243 C30.4124802,30.9243 33.5004,27.8366503 33.5004,24.0283 Z M35.5004,24.0283 C35.5004,28.941259 31.5170105,32.9243 26.6044,32.9243 C21.6902895,32.9243 17.7074,28.9417589 17.7074,24.0283 C17.7074,19.1148411 21.6902895,15.1323 26.6044,15.1323 C31.5170105,15.1323 35.5004,19.115341 35.5004,24.0283 Z" id="Stroke-3" fill="#85807B"></path>
                <path d="M33.5004,24.0283 C33.5004,19.1150153 37.4831153,15.1323 42.3964,15.1323 C47.3096847,15.1323 51.2924,19.1150153 51.2924,24.0283 C51.2924,28.9415847 47.3096847,32.9243 42.3964,32.9243 C37.4831153,32.9243 33.5004,28.9415847 33.5004,24.0283 Z M35.5004,24.0283 C35.5004,27.8370153 38.5876847,30.9243 42.3964,30.9243 C46.2051153,30.9243 49.2924,27.8370153 49.2924,24.0283 C49.2924,20.2195847 46.2051153,17.1323 42.3964,17.1323 C38.5876847,17.1323 35.5004,20.2195847 35.5004,24.0283 Z" id="Stroke-7" fill="#85807B"></path>
                <path d="M65.9965,56 C66.5471372,56 67.0005,55.5467932 67.0005,54.997 L67.0005,3.003 C67.0005,2.45320676 66.5471372,2 65.9965,2 L3.0035,2 C2.45378475,2 2.0005,2.45328475 2.0005,3.003 L2.0005,54.997 C2.0005,55.5467153 2.45378475,56 3.0035,56 L65.9965,56 Z M65.9965,58 L3.0035,58 C1.34921525,58 0.0005,56.6512847 0.0005,54.997 L0.0005,3.003 C0.0005,1.34871525 1.34921525,0 3.0035,0 L65.9965,0 C67.6515526,0 69.0005,1.34848309 69.0005,3.003 L69.0005,54.997 C69.0005,56.6515169 67.6515526,58 65.9965,58 Z" id="Stroke-1" fill="#BAB4B1"></path>
            </g>
        </g>
    </g>
</svg>