<?xml version="1.0" encoding="UTF-8"?>
<svg width="80px" height="80px" viewBox="0 0 80 80" version="1.1" xmlns="http://www.w3.org/2000/svg" xmlns:xlink="http://www.w3.org/1999/xlink">
    <!-- Generator: Sketch 46.2 (44496) - http://www.bohemiancoding.com/sketch -->
    <title>Icon/step 03 Copy 2</title>
    <desc>Created with Sketch.</desc>
    <defs></defs>
    <g id="Symbol" stroke="none" stroke-width="1" fill="none" fill-rule="evenodd">
        <g id="Icon/step-03-Copy-2">
            <path d="M72.0004,39.5 C72.0004,22.1032847 57.8971153,8 40.5004,8 C23.1036847,8 9.0004,22.1032847 9.0004,39.5 C9.0004,56.8967153 23.1036847,71 40.5004,71 C57.8971153,71 72.0004,56.8967153 72.0004,39.5 Z M74.0004,39.5 C74.0004,58.0012847 59.0016847,73 40.5004,73 C21.9991153,73 7.0004,58.0012847 7.0004,39.5 C7.0004,20.9987153 21.9991153,6 40.5004,6 C59.0016847,6 74.0004,20.9987153 74.0004,39.5 Z" id="Stroke-1" fill="#BAB4B1" fill-rule="nonzero"></path>
            <path d="M46.0522,29.21 C45.4372,28.749 44.7522,28.417 43.9982,28.212 C43.2422,28.007 42.2762,27.905 41.0992,27.905 L36.7222,27.905 L36.7222,40.268 L41.0992,40.268 C42.2762,40.268 43.2422,40.166 43.9982,39.96 C44.7522,39.756 45.4372,39.423 46.0522,38.962 C47.5112,37.913 48.2402,36.275 48.2402,34.048 C48.2402,31.872 47.5112,30.259 46.0522,29.21 M48.2402,40.344 C46.6032,41.727 44.4262,42.418 41.7132,42.418 L36.7222,42.418 L36.7222,53.284 L34.1492,53.284 L34.1492,25.716 L41.7132,25.716 C44.3752,25.716 46.5512,26.407 48.2402,27.79 C49.9812,29.223 50.8512,31.309 50.8512,34.048 C50.8512,36.863 49.9812,38.962 48.2402,40.344" id="Fill-3" fill="#85807B"></path>
        </g>
    </g>
</svg>