<!-- Generated by IcoMoon.io -->
<svg version="1.1" xmlns="http://www.w3.org/2000/svg" width="160" height="32" viewBox="0 0 160 32">
<title>OnePlus-6</title>
<path d="M151.153 10.635c-1.694-0.188-3.388 0-4.894 0.565l4.612-8.753-2.165-1.224-7.812 14.871c-0.565 1.035-0.847 2.165-1.035 3.294-0.659 5.553 3.294 10.635 8.847 11.294 0.471 0.094 0.847 0.094 1.224 0.094 5.082 0 9.412-3.765 10.071-8.941 0.659-5.365-3.294-10.447-8.847-11.2zM157.553 21.647c-0.565 4.235-4.329 7.153-8.565 6.682-4.235-0.565-7.153-4.329-6.682-8.565 0.094-0.941 0.376-1.882 0.847-2.635v-0.094c1.318-2.447 3.859-4.047 6.776-4.047 0.282 0 0.659 0 0.941 0.094 4.235 0.565 7.153 4.424 6.682 8.565z"></path>
<path d="M24.753 16.376c0 1.976-0.282 3.765-0.847 5.459s-1.412 3.106-2.541 4.329c-1.035 1.224-2.353 2.165-3.859 2.824s-3.2 1.035-5.082 1.035-3.576-0.376-5.082-1.035-2.824-1.6-3.953-2.824c-1.129-1.224-1.976-2.635-2.541-4.329s-0.941-3.482-0.941-5.459 0.282-3.765 0.847-5.459 1.506-3.106 2.635-4.329 2.353-2.165 3.859-2.824c1.506-0.659 3.2-1.035 5.082-1.035s3.576 0.376 5.082 1.035c1.506 0.659 2.824 1.6 3.953 2.824 1.035 1.224 1.976 2.635 2.541 4.329s0.847 3.576 0.847 5.459zM22.118 16.376c0-1.694-0.188-3.2-0.659-4.612s-1.129-2.541-1.976-3.576-1.882-1.788-3.106-2.353-2.541-0.847-4.047-0.847c-1.506 0-2.824 0.282-4.047 0.847s-2.165 1.318-3.012 2.353c-0.847 1.035-1.506 2.165-1.976 3.576s-0.659 2.918-0.659 4.612 0.188 3.2 0.659 4.612 1.129 2.541 1.976 3.576c0.847 1.035 1.882 1.788 3.106 2.353s2.541 0.847 4.047 0.847 2.824-0.282 4.047-0.847c1.224-0.565 2.259-1.318 3.106-2.353s1.506-2.165 1.976-3.576c0.376-1.506 0.565-3.012 0.565-4.612z"></path>
<path d="M41.788 29.553v-11.671c0-0.847-0.094-1.6-0.188-2.259s-0.376-1.318-0.659-1.788-0.753-0.847-1.318-1.129c-0.565-0.282-1.224-0.376-2.071-0.376s-1.6 0.188-2.259 0.565c-0.659 0.376-1.318 0.941-1.788 1.506s-0.941 1.224-1.224 1.882-0.565 1.224-0.659 1.788v11.482h-2.353v-18.918h2.165l0.188 3.765c0.282-0.471 0.565-1.035 1.035-1.506 0.376-0.471 0.847-0.941 1.412-1.318s1.129-0.659 1.788-0.941c0.659-0.188 1.412-0.376 2.259-0.376s1.6 0.094 2.353 0.376c0.753 0.282 1.412 0.659 1.976 1.224s0.941 1.224 1.318 2.165c0.282 0.847 0.471 1.976 0.471 3.2v12.329h-2.447z"></path>
<path d="M50.729 20.424c0 1.129 0.188 2.071 0.471 3.012s0.659 1.694 1.224 2.353c0.565 0.659 1.224 1.224 1.976 1.6s1.694 0.565 2.635 0.565c1.035 0 1.882-0.094 2.635-0.376 0.753-0.188 1.412-0.471 1.882-0.753 0.565-0.376 1.129-0.753 1.506-1.129l1.129 1.6c-0.471 0.565-1.129 0.941-1.788 1.318-0.565 0.376-1.412 0.659-2.353 0.941s-1.976 0.471-3.294 0.471c-1.224 0-2.353-0.188-3.482-0.659-1.035-0.471-1.976-1.129-2.729-1.976s-1.318-1.882-1.788-3.106c-0.471-1.224-0.659-2.541-0.659-4.141s0.188-2.918 0.659-4.141c0.471-1.224 1.035-2.259 1.788-3.106s1.694-1.506 2.729-1.976c1.035-0.471 2.165-0.659 3.388-0.659s2.259 0.188 3.2 0.659 1.788 1.035 2.447 1.788 1.224 1.694 1.6 2.824c0.376 1.035 0.565 2.259 0.565 3.576v1.318c0 0-13.741 0-13.741 0zM62.024 18.541c0-0.753-0.094-1.506-0.282-2.353-0.188-0.753-0.471-1.412-0.941-2.071-0.471-0.565-1.035-1.035-1.694-1.412s-1.6-0.565-2.541-0.565c-1.035 0-1.882 0.188-2.635 0.565s-1.318 0.941-1.788 1.506c-0.471 0.659-0.847 1.318-1.035 2.071-0.282 0.753-0.376 1.412-0.471 2.165l11.388 0.094z"></path>
<path d="M84.706 11.2c0 1.318-0.188 2.447-0.659 3.482-0.376 1.035-1.035 1.882-1.882 2.541s-1.788 1.224-2.824 1.506c-1.035 0.282-2.165 0.471-3.482 0.471h-4.8v10.447h-2.541v-26.353h7.341c1.224 0 2.447 0.188 3.482 0.471s1.976 0.847 2.824 1.506 1.412 1.6 1.882 2.541c0.471 0.941 0.659 2.071 0.659 3.388zM82.165 11.2c0-1.224-0.188-2.165-0.565-2.918s-0.847-1.318-1.506-1.788c-0.282-0.188-0.659-0.376-0.941-0.565s-0.659-0.282-1.035-0.376c-0.376-0.094-0.847-0.188-1.224-0.188-0.471-0.094-0.941-0.094-1.6-0.094h-4.141v11.765h4.141c0.565 0 1.035 0 1.6-0.094 0.471-0.094 0.847-0.094 1.224-0.188s0.753-0.188 1.035-0.376c0.282-0.188 0.659-0.376 0.941-0.565 0.565-0.471 1.035-1.035 1.506-1.788 0.376-0.659 0.565-1.6 0.565-2.824z"></path>
<path d="M89.129 29.553v-26.353h2.353v26.353c0.094 0-2.353 0-2.353 0z"></path>
<path d="M109.647 29.553l-0.188-3.765c-0.282 0.565-0.565 1.035-1.035 1.506-0.376 0.471-0.847 0.941-1.412 1.318s-1.129 0.659-1.788 0.941c-0.659 0.188-1.412 0.376-2.165 0.376s-1.506-0.094-2.259-0.282c-0.753-0.188-1.412-0.565-1.976-1.129s-1.035-1.224-1.318-2.071c-0.282-0.847-0.471-1.976-0.471-3.294v-12.518h2.353v11.765c0 1.694 0.282 2.918 0.941 3.859s1.694 1.412 3.2 1.412c0.753 0 1.506-0.188 2.165-0.565s1.224-0.847 1.788-1.318c0.471-0.565 0.941-1.129 1.318-1.788 0.282-0.659 0.565-1.318 0.659-1.882v-11.482h2.353v18.824l-2.165 0.094z"></path>
<path d="M129.129 24.376c0 0.753-0.188 1.506-0.471 2.165s-0.753 1.224-1.318 1.788c-0.565 0.471-1.318 0.847-2.071 1.224-0.847 0.282-1.788 0.471-2.824 0.471s-1.976-0.188-2.824-0.471c-0.847-0.282-1.506-0.659-2.071-1.035s-1.035-0.753-1.412-1.129-0.565-0.659-0.659-0.847l1.6-1.412c0.188 0.282 0.471 0.565 0.847 0.847s0.753 0.659 1.224 0.941c0.471 0.282 1.035 0.565 1.6 0.753s1.224 0.282 1.882 0.282c1.318 0 2.447-0.282 3.2-0.847s1.224-1.412 1.224-2.447c0-0.471-0.094-0.941-0.282-1.318s-0.471-0.659-0.753-0.941c-0.282-0.188-0.659-0.471-0.941-0.565-0.376-0.188-0.659-0.282-0.941-0.376s-0.565-0.188-0.941-0.376c-0.376-0.094-0.659-0.282-1.035-0.376s-0.753-0.282-1.035-0.376c-0.282-0.094-0.565-0.188-0.847-0.282-0.188-0.094-0.565-0.282-0.941-0.471s-0.847-0.471-1.224-0.847c-0.376-0.376-0.753-0.847-1.035-1.412s-0.471-1.224-0.471-1.976c0-0.753 0.188-1.506 0.471-2.165s0.753-1.224 1.318-1.694c0.565-0.471 1.224-0.847 2.071-1.035 0.847-0.282 1.694-0.376 2.541-0.376s1.788 0.094 2.541 0.376c0.753 0.188 1.412 0.471 1.882 0.847 0.565 0.282 0.941 0.565 1.224 0.847s0.471 0.471 0.471 0.471l-1.224 1.694c-0.188-0.188-0.471-0.471-0.847-0.659-0.282-0.282-0.659-0.471-1.129-0.659s-0.941-0.376-1.412-0.565c-0.565-0.188-1.035-0.188-1.694-0.188-0.565 0-1.129 0.094-1.6 0.188s-0.941 0.282-1.318 0.565c-0.376 0.282-0.659 0.565-0.847 0.941s-0.282 0.847-0.282 1.318c0 0.565 0.094 0.941 0.282 1.318s0.471 0.659 0.847 0.847c0.282 0.188 0.659 0.471 1.035 0.565 0.376 0.188 0.659 0.282 0.941 0.376 0.565 0.188 1.224 0.471 1.788 0.659 0.659 0.188 1.224 0.376 1.694 0.565 0.282 0.094 0.565 0.282 1.035 0.471s0.847 0.565 1.318 0.941c0.471 0.376 0.847 0.847 1.129 1.412 0.188 0.471 0.282 1.224 0.282 1.976z"></path>
</svg>
