<?xml version="1.0" encoding="UTF-8"?>
<svg width="40px" height="40px" viewBox="0 0 40 40" version="1.1" xmlns="http://www.w3.org/2000/svg" xmlns:xlink="http://www.w3.org/1999/xlink">
    <!-- Generator: Sketch 46.2 (44496) - http://www.bohemiancoding.com/sketch -->
    <title>iconquestion_slice</title>
    <desc>Created with Sketch.</desc>
    <defs></defs>
    <g id="Page-1" stroke="none" stroke-width="1" fill="none" fill-rule="evenodd">
        <g id="Artboard" transform="translate(-20.000000, -31.000000)" fill="#EB0028">
            <g id="Icon/Question" transform="translate(20.000000, 31.000000)">
                <path d="M31.2621469,23.5073446 C30.4907683,25.1826826 29.6290066,26.4542329 28.6768362,27.3220339 C27.7246657,28.1898348 26.8990619,28.7924654 26.2,29.1299435 C26.3446335,29.853111 26.7122381,30.5883202 27.3028249,31.3355932 C27.8934116,32.0828663 28.5864367,32.6734442 29.3819209,33.1073446 L25.2960452,36 C24.3559275,35.5178884 23.53635,34.7947318 22.8372881,33.8305085 C22.1382263,32.8662852 21.6681745,31.7815503 21.4271186,30.5762712 C21.3306963,30.6003768 21.1258019,30.6365346 20.8124294,30.6847458 C20.4990568,30.7329569 20.1254259,30.7570621 19.6915254,30.7570621 C17.1363337,30.7570621 14.9005746,30.1966158 12.9841808,29.0757062 C11.067787,27.9547967 9.59134228,26.3879573 8.55480226,24.3751412 C7.51826224,22.3623252 7,20.0301451 7,17.3785311 C7,14.7269171 7.51826224,12.394737 8.55480226,10.3819209 C9.59134228,8.36910481 11.067787,6.80226549 12.9841808,5.68135593 C14.9005746,4.56044637 17.1363337,4 19.6915254,4 C22.2467171,4 24.4885026,4.55442007 26.4169492,5.66327684 C28.3453957,6.7721336 29.8278668,8.33897293 30.8644068,10.3638418 C31.9009468,12.3887107 32.419209,14.7269171 32.419209,17.3785311 C32.419209,19.7890893 32.0335255,21.8320067 31.2621469,23.5073446 Z M26.2542373,12.6779661 C25.6636505,11.3039479 24.8079152,10.2312656 23.6870056,9.45988701 C22.5660961,8.68850838 21.2342827,8.30282486 19.6915254,8.30282486 C17.3773896,8.30282486 15.5634717,9.14048127 14.2497175,10.8158192 C12.9359633,12.4911572 12.279096,14.6666533 12.279096,17.3423729 C12.279096,19.0779748 12.5683587,20.6327615 13.1468927,22.0067797 C13.7254266,23.3807978 14.5751356,24.4534801 15.6960452,25.2248588 C16.8169548,25.9962374 18.1487682,26.3819209 19.6915254,26.3819209 C21.2342827,26.3819209 22.5660961,25.9962374 23.6870056,25.2248588 C24.8079152,24.4534801 25.6636505,23.3807978 26.2542373,22.0067797 C26.844824,20.6327615 27.140113,19.0779748 27.140113,17.3423729 C27.140113,15.606771 26.844824,14.0519843 26.2542373,12.6779661 Z" id="Q"></path>
            </g>
        </g>
    </g>
</svg>