<?xml version="1.0" encoding="UTF-8"?>
<svg width="80px" height="80px" viewBox="0 0 80 80" version="1.1" xmlns="http://www.w3.org/2000/svg" xmlns:xlink="http://www.w3.org/1999/xlink">
    <!-- Generator: Sketch 46.2 (44496) - http://www.bohemiancoding.com/sketch -->
    <title>Icon/step 01 Copy 2</title>
    <desc>Created with Sketch.</desc>
    <defs></defs>
    <g id="Symbol" stroke="none" stroke-width="1" fill="none" fill-rule="evenodd">
        <g id="Icon/step-01-Copy-2" fill-rule="nonzero">
            <g id="Page-1" transform="translate(12.000000, 9.000000)">
                <polygon id="Stroke-5" fill="#85807B" points="37.4804292 13.8997629 22.1134292 23.6837629 23.1875708 25.3708371 38.5545708 15.5868371"></polygon>
                <polygon id="Stroke-9" fill="#85807B" points="38.5346729 45.9308721 23.2086729 36.2568721 22.1411271 37.9481279 37.4671271 47.6221279"></polygon>
                <path d="M23.4882,30.8336 C23.4882,24.8998847 18.6779153,20.0896 12.7442,20.0896 C6.81048475,20.0896 2.0002,24.8998847 2.0002,30.8336 C2.0002,36.7673153 6.81048475,41.5776 12.7442,41.5776 C18.6779153,41.5776 23.4882,36.7673153 23.4882,30.8336 Z M25.4882,30.8336 C25.4882,37.8718847 19.7824847,43.5776 12.7442,43.5776 C5.70591525,43.5776 0.0002,37.8718847 0.0002,30.8336 C0.0002,23.7953153 5.70591525,18.0896 12.7442,18.0896 C19.7824847,18.0896 25.4882,23.7953153 25.4882,30.8336 Z" id="Stroke-1" fill="#BAB4B1"></path>
                <path d="M53.4999,9.9435 C53.4999,5.55678475 49.9436153,2.0005 45.5569,2.0005 C41.1693221,2.0005 37.6129,5.55664742 37.6129,9.9435 C37.6129,14.3303526 41.1693221,17.8865 45.5569,17.8865 C49.9436153,17.8865 53.4999,14.3302153 53.4999,9.9435 Z M55.4999,9.9435 C55.4999,15.4347847 51.0481847,19.8865 45.5569,19.8865 C40.0647872,19.8865 35.6129,15.4349567 35.6129,9.9435 C35.6129,4.45204334 40.0647872,0.0005 45.5569,0.0005 C51.0481847,0.0005 55.4999,4.45221525 55.4999,9.9435 Z" id="Stroke-3" fill="#BAB4B1"></path>
                <path d="M55.4999,51.546 C55.4999,57.0372847 51.0481847,61.489 45.5569,61.489 C40.0647872,61.489 35.6129,57.0374567 35.6129,51.546 C35.6129,46.0545433 40.0647872,41.603 45.5569,41.603 C51.0481847,41.603 55.4999,46.0547153 55.4999,51.546 Z M53.4999,51.546 C53.4999,47.1592847 49.9436153,43.603 45.5569,43.603 C41.1693221,43.603 37.6129,47.1591474 37.6129,51.546 C37.6129,55.9328526 41.1693221,59.489 45.5569,59.489 C49.9436153,59.489 53.4999,55.9327153 53.4999,51.546 Z" id="Stroke-7" fill="#BAB4B1"></path>
            </g>
        </g>
    </g>
</svg>